<svg width="206" height="244" viewBox="0 0 206 244" fill="none" xmlns="http://www.w3.org/2000/svg">
<path d="M51.28 0.343342C65.0237 -3.70446 75.5715 29.0911 78.5663 43.3082C94.6279 38.8879 112.597 38.5743 127.149 43.3082C130.245 15.7103 143.222 -1.85197 153.77 0.343342C169.843 3.68856 181.823 49.8941 179.06 70.2789C245.047 164.049 159.095 236.807 102.525 239.63C-22.5688 202.623 -7.1852 117.605 26.9886 70.2789C21.9973 25.7459 40.6317 3.47947 51.28 0.343342Z" fill="#826F66"/>
<ellipse cx="63.0272" cy="133.599" rx="11.9794" ry="9.40837" fill="#010202"/>
<ellipse cx="69.0169" cy="130.463" rx="3.3276" ry="3.13612" fill="#EFEFEF"/>
<ellipse cx="142.89" cy="133.599" rx="11.9794" ry="9.40837" fill="#010202"/>
<ellipse cx="136.9" cy="130.463" rx="3.3276" ry="3.13612" fill="#EFEFEF"/>
<path d="M55.9709 11.7552C61.8275 16.773 66.3974 37.2623 67.9503 46.8798C53.8413 49.6396 41.4404 58.9015 37.0036 63.1876C36.7374 32.8299 43.0598 19.2819 46.6536 13.6368C49.6484 8.93266 54.3071 10.2916 55.9709 11.7552Z" fill="#F7CCAC"/>
<path d="M148.803 11.7552C142.946 16.773 138.376 37.2623 136.823 46.8798C150.932 49.6396 163.333 58.9015 167.77 63.1876C168.036 32.8299 161.714 19.2819 158.12 13.6368C155.125 8.93266 150.467 10.2916 148.803 11.7552Z" fill="#F7CCAC"/>
<path d="M58.3473 168.195C31.4041 183.349 14.1115 158.688 3.13037 149.002C10.2159 209.011 65.4747 243.54 102.587 243.54C164.383 243.54 202.121 175.864 202.121 149.002C180.159 176.28 154.314 180.67 142.503 168.195C122.545 147.114 108.907 147.114 102.587 147.114C82.6295 147.617 73.6107 159.61 58.3473 168.195Z" fill="#F7CCAC"/>
<path d="M120.927 162.702C110.279 149.593 91.9774 153.043 85.6549 162.702C85.6549 169.351 93.9739 175.937 102.958 175.937C111.943 175.937 120.927 169.351 120.927 162.702Z" fill="#010202"/>
<path d="M103.291 185.345C108.504 190.572 121.66 197.889 132.574 185.345" stroke="#010202" stroke-width="4" stroke-linecap="round"/>
<path d="M73.6756 185.031C78.8888 190.258 92.0439 197.576 102.958 185.031" stroke="#010202" stroke-width="4" stroke-linecap="round"/>
<ellipse cx="63.0157" cy="110.705" rx="14.3087" ry="7.21308" fill="#F7CCAC"/>
<ellipse cx="142.878" cy="110.705" rx="14.3087" ry="7.21308" fill="#F7CCAC"/>
</svg>
