<svg width="24" height="24" viewBox="0 0 24 24" fill="none" xmlns="http://www.w3.org/2000/svg">
<path d="M22.9874 8.56597C22.7272 7.94769 22.295 7.50191 21.7372 7.27738L21.7297 7.27456C21.4758 7.17512 21.2055 7.12424 20.9328 7.12456H20.9028C19.626 7.14378 18.3224 8.22894 17.6596 9.82503C17.1735 10.9922 17.1177 12.2475 17.5105 13.1832C17.7702 13.8019 18.2033 14.2477 18.7635 14.4722L18.7696 14.4746C19.0235 14.5739 19.2938 14.6248 19.5664 14.6246C20.8555 14.6246 22.1727 13.5394 22.8477 11.9222C23.3277 10.7564 23.3807 9.50206 22.9874 8.56597Z" fill="#DCA35E"/>
<path d="M17.8855 15.45C17.1491 15.0075 16.453 14.5889 15.9983 13.8371C14.7439 11.7558 13.9864 10.4996 12.0003 10.4996C10.0143 10.4996 9.25488 11.7558 7.99769 13.8371C7.54207 14.5899 6.84457 15.0089 6.10582 15.4533C5.25879 15.9624 4.38363 16.4883 4.00582 17.5233C3.85894 17.8964 3.78495 18.2942 3.78785 18.6952C3.78785 20.3803 5.10035 21.7514 6.71285 21.7514C7.54488 21.7514 8.43035 21.4632 9.36738 21.158C10.2683 20.8646 11.1997 20.5613 12.005 20.5613C12.8103 20.5613 13.7394 20.8646 14.6371 21.158C15.5722 21.4613 16.4535 21.7496 17.2878 21.7496C18.898 21.7496 20.2082 20.3785 20.2082 18.6933C20.2095 18.292 20.1339 17.8943 19.9855 17.5214C19.6077 16.4855 18.7321 15.9591 17.8855 15.45Z" fill="#DCA35E"/>
<path d="M7.0316 8.85191C7.58941 9.55175 8.29722 9.93706 9.02472 9.93706C9.12404 9.93706 9.22322 9.9297 9.32144 9.91503C10.8388 9.69191 11.7843 7.84035 11.4739 5.69628C11.3441 4.79488 10.9972 3.95535 10.5003 3.33285C9.94347 2.63441 9.23472 2.24956 8.50769 2.24956C8.40838 2.24957 8.3092 2.25693 8.21097 2.2716C6.69363 2.49472 5.74816 4.34628 6.05847 6.49035C6.18785 7.39035 6.53472 8.22894 7.0316 8.85191Z" fill="#DCA35E"/>
<path d="M14.6797 9.91503C14.778 9.9297 14.8771 9.93706 14.9764 9.93706C15.7044 9.93706 16.4118 9.55175 16.9696 8.85191C17.466 8.22894 17.811 7.39035 17.9422 6.48941C18.2525 4.34628 17.3071 2.49472 15.7897 2.27066C15.6915 2.25599 15.5923 2.24863 15.493 2.24863C14.766 2.24956 14.0572 2.63441 13.5003 3.33285C13.0035 3.95535 12.6566 4.79488 12.5272 5.69722C12.2169 7.84035 13.1624 9.69191 14.6797 9.91503Z" fill="#DCA35E"/>
<path d="M5.23113 14.4746L5.23769 14.4722C5.79691 14.2477 6.22957 13.8024 6.48879 13.1841C6.8816 12.2466 6.82629 10.9927 6.34113 9.8255C5.66941 8.21019 4.35269 7.12456 3.06504 7.12456C2.79236 7.12417 2.52204 7.17505 2.26816 7.27456L2.2616 7.27691C1.70379 7.49956 1.27113 7.94675 1.01191 8.56503C0.619099 9.50253 0.674411 10.7564 1.15957 11.9236C1.83129 13.5389 3.14801 14.6246 4.43566 14.6246C4.70787 14.6248 4.9777 14.5739 5.23113 14.4746Z" fill="#DCA35E"/>
</svg>
